<svg width="893" height="484" viewBox="0 0 893 484" fill="none" xmlns="http://www.w3.org/2000/svg">
<path d="M863 235.5H830.5V275H812V304.5H830.5V371.5C830.5 393 855 406.5 866 407.5H893V378.5H876.5C865.228 378.119 863 373 863 365V304.5H893V275H863V235.5Z" fill="#3479BF"/>
<path d="M666.5 360.5V274.5H699.5V355.5C699.5 369.5 710.346 377.771 727 379C749.139 378.748 760.5 368.5 760.5 350.5V274.5H794V407.5H760.5V381C748.119 402.498 737.36 406.65 715 407.5C678.6 407.1 666.5 382.5 666.5 360.5Z" fill="#3479BF"/>
<path fill-rule="evenodd" clip-rule="evenodd" d="M76.644 180.808L233.014 86.5504C248.977 57.8972 259.243 37.6205 264.773 23.9328C270.578 37.5035 281.639 57.6618 299.461 86.3899L454.591 180.899C530.822 227.856 563.634 170.683 492.965 135.924L338.137 42.3825C331.891 38.3231 325.582 34.0987 319.398 29.9583C297.333 15.1845 276.864 1.4792 266.589 0.149672C259.224 -1.56885 239.851 11.7199 214.24 29.2876C208.235 33.4066 201.887 37.7609 195.27 42.2121L38.9003 136.469C-39.1013 182.6 14.178 226.273 76.644 180.808Z" fill="#3479BF"/>
<path fill-rule="evenodd" clip-rule="evenodd" d="M566 407C612.944 407 651 368.944 651 322C651 275.056 612.944 237 566 237C519.056 237 481 275.056 481 322C481 368.944 519.056 407 566 407ZM566 376C593.614 376 616 351.6 616 321.5C616 291.4 593.614 267 566 267C538.386 267 516 291.4 516 321.5C516 351.6 538.386 376 566 376Z" fill="#3479BF"/>
<circle cx="143.5" cy="199.772" r="40.5" fill="#3479BF"/>
<path d="M214.803 159.272H313.498C355.659 166.772 363.188 227.272 313.498 240.272H214.803C171.498 224.772 176.03 170.772 214.803 159.272Z" fill="#3479BF" fill-opacity="0.35"/>
<path d="M428.012 205.02L428.052 351.6C437.5 414.272 346 424.272 347.052 351.622L347.012 205.042C351.5 138.772 431 148.772 428.012 205.02Z" fill="#3479BF" fill-opacity="0.35"/>
<path d="M214.803 402.272H313.498C355.659 409.772 363.188 470.272 313.498 483.272H214.803C171.498 467.772 176.03 413.772 214.803 402.272Z" fill="#3479BF" fill-opacity="0.35"/>
<circle cx="388.5" cy="442.772" r="40.5" fill="#3479BF" fill-opacity="0.35"/>
<path d="M184.022 286.292L184.061 432.872C193.51 495.545 102.01 505.545 103.061 432.894L103.022 286.314C107.509 220.045 187.009 230.045 184.022 286.292Z" fill="#3479BF"/>
</svg>
